<svg xmlns="http://www.w3.org/2000/svg" viewBox="0 0 314.29 408.43"><defs><style>.cls-1{fill:#26a8e0;}.cls-2{fill:#7ab526;}.cls-3{fill:#eb5534;}.cls-4{font-size:88.9px;font-family:Ebrima-Bold, Ebrima;font-weight:700;}</style></defs><title>Elevio logo</title><g id="graphics"><path class="cls-1" d="M346.11,231.16c0-42.75,9.7-75.8,25.94-100,20.72-30.82,50.3-47.12,85.52-47.12,73.58,0,115.78,49.17,115.78,134.89,0,33.48-8.17,64.76-23,88.08-17.67,27.79-43.19,42.47-73.78,42.47S420.4,335,402.8,307.5c-13.05-20.39-20.94-47.14-22.66-76.34Zm25-24.38h33.07V219c0,29.29,6.81,56.06,19.18,75.38,13.08,20.43,31,30.79,53.22,30.79,49.75,0,72.4-55,72.4-106.17,0-50.41-15.85-110.5-91.39-110.5C399.9,108.47,375.12,164.49,371.09,206.78Z" transform="translate(-259.05 -83.57)"/><path class="cls-2" d="M431.88,175.35a15.17,15.17,0,1,1-15.17-15.17A15.18,15.18,0,0,1,431.88,175.35Z" transform="translate(-259.05 -83.57)"/><path class="cls-3" d="M486.29,230.65c0-49.63-9.7-75.8-25.94-100a118.51,118.51,0,0,0-17.72-20.88,71.89,71.89,0,0,0-26,10.31c28.4,18.82,41.84,56,44.72,86.15H428.24v12.19a177.12,177.12,0,0,1-1.6,23.93,55.41,55.41,0,0,0-58.55,81.09,64.6,64.6,0,0,1-12.25,1.15c-49.75,0-72.4-55-72.4-106.17,0-50.41,15.85-110.5,91.39-110.5a81.15,81.15,0,0,1,15.86,1.52,97.82,97.82,0,0,1,26.08-17,99.83,99.83,0,0,0-41.94-8.86c-73.58,0-115.78,49.17-115.78,134.89,0,33.48,8.17,64.76,23,88.08C299.73,334.32,325.24,349,355.84,349c13.58,0,43.23-8,54.06-16.8-15.27-9.57-23.89-22.38-24.22-35.29-.44-17.1,13.92-31.15,31-31,14.86.1,20.53,4.78,27.94,10.38,5.89-17.67,7-35.21,7.61-45.62Z" transform="translate(-259.05 -83.57)"/><text class="cls-4" transform="translate(32.5 380.04)">elevio</text></g></svg>